<mxfile host="app.diagrams.net" modified="2023-12-05T01:39:16.965Z" agent="Mozilla/5.0 (Macintosh; Intel Mac OS X 10_15_7) AppleWebKit/537.36 (KHTML, like Gecko) Chrome/119.0.0.0 Safari/537.36" etag="pGIq0hKo9BuOyC5m93m0" version="22.1.5" type="github">
  <diagram name="第 1 页" id="7Vmovrd8K3izzkLm6nwi">
    <mxGraphModel dx="954" dy="1658" grid="1" gridSize="10" guides="1" tooltips="1" connect="1" arrows="1" fold="1" page="1" pageScale="1" pageWidth="827" pageHeight="1169" math="0" shadow="0">
      <root>
        <mxCell id="0" />
        <mxCell id="1" parent="0" />
        <mxCell id="baZTO75WzkcRasQGVIcD-1" value="" style="whiteSpace=wrap;html=1;aspect=fixed;" vertex="1" parent="1">
          <mxGeometry x="50" y="-200" width="80" height="80" as="geometry" />
        </mxCell>
        <mxCell id="baZTO75WzkcRasQGVIcD-2" value="" style="shape=cylinder3;whiteSpace=wrap;html=1;boundedLbl=1;backgroundOutline=1;size=15;" vertex="1" parent="1">
          <mxGeometry x="310" y="-200" width="60" height="80" as="geometry" />
        </mxCell>
        <mxCell id="baZTO75WzkcRasQGVIcD-3" value="" style="ellipse;whiteSpace=wrap;html=1;aspect=fixed;" vertex="1" parent="1">
          <mxGeometry x="180" y="-200" width="80" height="80" as="geometry" />
        </mxCell>
        <mxCell id="baZTO75WzkcRasQGVIcD-4" value="" style="rhombus;whiteSpace=wrap;html=1;" vertex="1" parent="1">
          <mxGeometry x="430" y="-200" width="80" height="80" as="geometry" />
        </mxCell>
      </root>
    </mxGraphModel>
  </diagram>
</mxfile>
